# xmcd
#
# Track frame offsets:
#	150
#	20289
#	32854
#	44905
#	57063
#	72106
#	86395
#	98745
#	113860
#	127890
#	142754
#	153774
#	166333
#	177304
#	192556
#	204898
#	219622
#	233634
#	247428
#	262949
#	277049
#	292061
#
# Disc length: 4020 seconds
#
# Revision: 0
# Processed by: cddbd v1.5.2PL0 Copyright (c) Steve Scherf et al.
# Submitted via: EasyCDDAExtractor 15.3.0.1
#
DISCID=3d0fb216
DTITLE=Israel and Rodolfo
DYEAR=2011
DGENRE=Sertanejo Universitário
TTITLE0=Abertura - Eu Você E O Nosso Amor
TTITLE1=Amor Que É Bom Ninguém Quer Me Dá
TTITLE2=Pensei Que Fosse Só Um Beijo
TTITLE3=Do Jeito Que Eu Queria
TTITLE4=Pra Ser Sincero
TTITLE5=Marca Evidente (Part. Jorge and Mateus)
TTITLE6=Vacilou Perdeu
TTITLE7=Depende De Ti
TTITLE8=Ai Que Vontade (Part. Humberto and Ronaldo)
TTITLE9=Sou Seu Fã (Part. Gusttavo Lima)
TTITLE10=Esqueci De Avisar
TTITLE11=Estrela Guia
TTITLE12=Me Enche De Beijo
TTITLE13=Chorar Por Amor (Part. Cristiano Araújo)
TTITLE14=Largadão
TTITLE15=A Cerca Chegou No Brejo
TTITLE16=Abstrato
TTITLE17=Frio E Calor (Part. Matheus and Kauan)
TTITLE18=Sete Dias Sete Noites
TTITLE19=O Amor Que Manda Em Mim
TTITLE20=Conto De Fadas
TTITLE21=Encerramento - Eu, Você E O Nosso Amor
EXTD=
EXTT0=
EXTT1=
EXTT2=
EXTT3=
EXTT4=
EXTT5=
EXTT6=
EXTT7=
EXTT8=
EXTT9=
EXTT10=
EXTT11=
EXTT12=
EXTT13=
EXTT14=
EXTT15=
EXTT16=
EXTT17=
EXTT18=
EXTT19=
EXTT20=
EXTT21=
PLAYORDER=
